<?xml version="1.0" encoding="UTF-8"?>
<!DOCTYPE svg PUBLIC "-//W3C//DTD SVG 1.1//EN" "http://www.w3.org/Graphics/SVG/1.1/DTD/svg11.dtd">
<!-- Creator: CorelDRAW 2021.5 -->
<svg xmlns="http://www.w3.org/2000/svg" xml:space="preserve" width="43.3493mm" height="43.3492mm" version="1.1" style="shape-rendering:geometricPrecision; text-rendering:geometricPrecision; image-rendering:optimizeQuality; fill-rule:evenodd; clip-rule:evenodd"
viewBox="0 0 4334.92 4334.91"
 xmlns:xlink="http://www.w3.org/1999/xlink"
 xmlns:xodm="http://www.corel.com/coreldraw/odm/2003">
 <defs>
  <style type="text/css">
   <![CDATA[
    .fil0 {fill:#0366D6}
    .fil1 {fill:white}
   ]]>
  </style>
 </defs>
 <g id="Layer_x0020_1">
  <metadata id="CorelCorpID_0Corel-Layer"/>
  <g id="_1472143076416">
   <circle class="fil0" cx="2167.46" cy="2167.46" r="2167.46"/>
   <path class="fil1" d="M2390.92 837.48l0 134.28c242.99,34.04 466.67,128.26 655.53,267.08 -19.5,-73.31 -108.36,-244.79 28.34,-244.79 51.72,0 402.05,243.23 338,364.71 -17.79,33.74 -100.47,64.5 -147.85,77.55 151.42,167.56 264.31,370.61 324.67,595.19l-477.36 0c-148.94,-364.19 -506.73,-620.82 -924.53,-620.82 -551.45,0 -998.49,447.04 -998.49,998.5 0,551.45 447.04,998.49 998.49,998.49 431.47,0 799,-273.67 938.52,-656.89l472.56 0c-153.63,636.85 -727.05,1110.01 -1411.08,1110.01 -801.7,0 -1451.61,-649.91 -1451.61,-1451.61 0,-732.73 542.93,-1338.55 1248.42,-1437.39l0 -134.31 -90.73 0c-52.86,0 -96.1,-43.24 -96.1,-96.1l0 -171.14c0,-52.86 43.24,-96.11 96.1,-96.11l587.85 0c52.86,0 96.1,43.25 96.1,96.11l0 171.14c0,52.86 -43.24,96.1 -96.1,96.1l-90.73 0zm-148.1 1313.18l368.24 -368.24c24.25,-24.24 63.92,-24.24 88.17,0l78.5 78.5c24.24,24.25 24.24,63.92 0,88.17l-362.26 362.25c7.52,23.36 11.6,48.26 11.6,74.12 0,133.48 -108.21,241.69 -241.69,241.69 -133.49,0 -241.69,-108.21 -241.69,-241.69 0,-133.48 108.2,-241.69 241.69,-241.69 19.79,0 39.03,2.4 57.44,6.89z"/>
  </g>
 </g>
</svg>
